<?xml version="1.0" encoding="UTF-8"?>
<svg xmlns="http://www.w3.org/2000/svg" xmlns:xlink="http://www.w3.org/1999/xlink" width="144px" height="144px" viewBox="0 0 144 144" version="1.1">
<g id="surface1">
<path style=" stroke:none;fill-rule:nonzero;fill:rgb(12.941176%,48.627451%,90.980392%);fill-opacity:1;" d="M 107.460938 30 L 35.460938 30 L 43.261719 22.261719 C 45.613281 19.90625 45.613281 16.09375 43.261719 13.738281 C 40.90625 11.386719 37.09375 11.386719 34.738281 13.738281 L 16.738281 31.738281 C 15.605469 32.867188 14.964844 34.398438 14.964844 36 C 14.964844 37.601562 15.605469 39.132812 16.738281 40.261719 L 34.738281 58.261719 C 35.867188 59.394531 37.398438 60.035156 39 60.035156 C 40.601562 60.035156 42.132812 59.394531 43.261719 58.261719 C 44.394531 57.132812 45.035156 55.601562 45.035156 54 C 45.035156 52.398438 44.394531 50.867188 43.261719 49.738281 L 35.460938 42 L 107.460938 42 C 112.628906 41.898438 116.902344 46.011719 117 51.179688 L 117 66 C 117 69.3125 119.6875 72 123 72 C 126.3125 72 129 69.3125 129 66 L 129 51.179688 C 128.902344 39.382812 119.257812 29.898438 107.460938 30 Z M 109.261719 85.738281 C 106.90625 83.386719 103.09375 83.386719 100.738281 85.738281 C 98.386719 88.09375 98.386719 91.90625 100.738281 94.261719 L 108.539062 102 L 36.539062 102 C 31.371094 102.101562 27.097656 97.988281 27 92.820312 L 27 78 C 27 74.6875 24.3125 72 21 72 C 17.6875 72 15 74.6875 15 78 L 15 92.820312 C 15.097656 104.617188 24.742188 114.101562 36.539062 114 L 108.539062 114 L 100.738281 121.738281 C 99.605469 122.867188 98.964844 124.398438 98.964844 126 C 98.964844 127.601562 99.605469 129.132812 100.738281 130.261719 C 101.867188 131.394531 103.398438 132.035156 105 132.035156 C 106.601562 132.035156 108.132812 131.394531 109.261719 130.261719 L 127.261719 112.261719 C 128.394531 111.132812 129.035156 109.601562 129.035156 108 C 129.035156 106.398438 128.394531 104.867188 127.261719 103.738281 Z M 109.261719 85.738281 "/>
</g>
</svg>
