<?xml version="1.0" encoding="utf-8"?>
<!-- Generator: Adobe Illustrator 24.3.0, SVG Export Plug-In . SVG Version: 6.00 Build 0)  -->
<svg version="1.1" id="Layer_1" xmlns="http://www.w3.org/2000/svg" xmlns:xlink="http://www.w3.org/1999/xlink" x="0px" y="0px"
	 viewBox="0 0 595.28 841.89" style="enable-background:new 0 0 595.28 841.89;" xml:space="preserve">
<style type="text/css">
	.st0{fill-rule:evenodd;clip-rule:evenodd;fill:#5864FF;}
	.st1{fill:#FFFFFF;}
</style>
<rect x="0.47" y="123.77" class="st0" width="594.34" height="594.34"/>
<path class="st1" d="M332.85,444.86c0-6.97,5.65-12.61,12.61-12.61c6.97,0,12.61,5.65,12.61,12.61v47.83
	c0,33.38-27.06,60.44-60.44,60.44c-33.38,0-60.44-27.06-60.44-60.44c0-59.79,48.48-108.27,108.27-108.27h23.91
	c31.28,0,47.02-37.99,24.9-60.11c-6.37-6.37-15.17-10.31-24.9-10.31H225.9c-31.28,0-47.02,37.99-24.9,60.11
	c6.37,6.37,15.18,10.31,24.9,10.31h23.91c6.97,0,12.61,5.65,12.61,12.61c0,6.97-5.65,12.61-12.61,12.61H225.9
	c-33.38,0-60.44-27.06-60.44-60.44c0-33.38,27.06-60.44,60.44-60.44h143.48c33.38,0,60.44,27.06,60.44,60.44
	c0,33.38-27.06,60.44-60.44,60.44h-23.91c-45.86,0-83.04,37.18-83.04,83.04c0,31.28,37.99,47.02,60.11,24.9
	c6.37-6.37,10.31-15.17,10.31-24.9V444.86z"/>
</svg>
